<svg width="74" height="74" viewBox="0 0 49 48" fill="none" xmlns="http://www.w3.org/2000/svg">
<g id="Asset">
<g id="Group 7968">
<path id="Vector 1271" d="M6.59651 37.0119L4.38599 33.1435L45.2807 32.5908L43.6228 37.5645L24.8334 41.9856L6.59651 37.0119Z" fill="#17A2B8"/>
<path id="Rectangle 4316" d="M3.83337 5.21209C3.83337 3.71801 5.28483 2.65426 6.70956 3.10417L24.8334 8.82748V39.7748L5.42925 34.1579C4.48394 33.8842 3.83337 33.0186 3.83337 32.0345V5.21209Z" fill="#DCF9FE"/>
<path id="Rectangle 4317" d="M45.8334 5.21209C45.8334 3.71801 44.3819 2.65426 42.9572 3.10417L24.8334 8.82748V39.7748L44.2375 34.1579C45.1828 33.8842 45.8334 33.0186 45.8334 32.0345V5.21209Z" fill="#A2DAE3"/>
<path id="Vector 1272 (Stroke)" fill-rule="evenodd" clip-rule="evenodd" d="M5.51619 8.11066C5.60666 7.81916 5.91629 7.6562 6.20779 7.74666L22.2341 12.7203C22.5256 12.8108 22.6886 13.1204 22.5981 13.4119C22.5076 13.7034 22.198 13.8664 21.9065 13.7759L5.88019 8.80226C5.5887 8.71179 5.42573 8.40215 5.51619 8.11066Z" fill="#17A2B8"/>
<path id="Vector 1273 (Stroke)" fill-rule="evenodd" clip-rule="evenodd" d="M5.51619 13.0843C5.60666 12.7928 5.91629 12.6298 6.20779 12.7203L22.2341 17.694C22.5256 17.7844 22.6886 18.0941 22.5981 18.3856C22.5076 18.6771 22.198 18.84 21.9065 18.7496L5.88019 13.7759C5.5887 13.6854 5.42573 13.3758 5.51619 13.0843Z" fill="#17A2B8"/>
<path id="Vector 1275 (Stroke)" fill-rule="evenodd" clip-rule="evenodd" d="M5.51619 24.137C5.60666 23.8455 5.91629 23.6826 6.20779 23.773L22.2341 28.7467C22.5256 28.8372 22.6886 29.1468 22.5981 29.4383C22.5076 29.7298 22.198 29.8928 21.9065 29.8023L5.88019 24.8286C5.5887 24.7382 5.42573 24.4285 5.51619 24.137Z" fill="#17A2B8"/>
<path id="Vector 1274 (Stroke)" fill-rule="evenodd" clip-rule="evenodd" d="M5.51619 18.6107C5.60666 18.3192 5.91629 18.1562 6.20779 18.2467L22.2341 23.2203C22.5256 23.3108 22.6886 23.6204 22.5981 23.9119C22.5076 24.2034 22.198 24.3664 21.9065 24.2759L5.88019 19.3023C5.5887 19.2118 5.42573 18.9022 5.51619 18.6107Z" fill="#17A2B8"/>
<path id="Vector 1276 (Stroke)" fill-rule="evenodd" clip-rule="evenodd" d="M43.5978 7.55792C43.5074 7.26643 43.1977 7.10346 42.9062 7.19393L26.8799 12.1676C26.5884 12.2581 26.4254 12.5677 26.5159 12.8592C26.6064 13.1507 26.916 13.3137 27.2075 13.2232L43.2338 8.24952C43.5253 8.15906 43.6883 7.84942 43.5978 7.55792Z" fill="#17A2B8"/>
<path id="Vector 1277 (Stroke)" fill-rule="evenodd" clip-rule="evenodd" d="M43.5978 12.5325C43.5074 12.241 43.1977 12.0781 42.9062 12.1685L26.8799 17.1422C26.5884 17.2327 26.4254 17.5423 26.5159 17.8338C26.6064 18.1253 26.916 18.2883 27.2075 18.1978L43.2338 13.2241C43.5253 13.1337 43.6883 12.824 43.5978 12.5325Z" fill="#17A2B8"/>
<path id="Vector 1278 (Stroke)" fill-rule="evenodd" clip-rule="evenodd" d="M43.5978 23.5843C43.5074 23.2928 43.1977 23.1298 42.9062 23.2203L26.8799 28.194C26.5884 28.2844 26.4254 28.5941 26.5159 28.8856C26.6064 29.1771 26.916 29.34 27.2075 29.2496L43.2338 24.2759C43.5253 24.1854 43.6883 23.8758 43.5978 23.5843Z" fill="#17A2B8"/>
<path id="Vector 1279 (Stroke)" fill-rule="evenodd" clip-rule="evenodd" d="M43.5978 18.0579C43.5074 17.7664 43.1977 17.6035 42.9062 17.6939L26.8799 22.6676C26.5884 22.7581 26.4254 23.0677 26.5159 23.3592C26.6064 23.6507 26.916 23.8137 27.2075 23.7232L43.2338 18.7495C43.5253 18.6591 43.6883 18.3494 43.5978 18.0579Z" fill="#17A2B8"/>
<path id="Vector 1280 (Stroke)" fill-rule="evenodd" clip-rule="evenodd" d="M38.4377 31.0695C39.5832 30.6475 40.854 31.234 41.2761 32.3796L45.1445 42.8796C45.5666 44.0251 44.98 45.2959 43.8345 45.718C42.6889 46.14 41.4181 45.5535 40.996 44.4079L37.1276 33.9079C36.7056 32.7624 37.2921 31.4916 38.4377 31.0695Z" fill="#5E2CA5"/>
<path id="Ellipse 286" d="M45.8334 28.1692C45.8334 33.3577 41.6273 37.5639 36.4387 37.5639C31.2501 37.5639 27.0439 33.3577 27.0439 28.1692C27.0439 22.9806 31.2501 18.7744 36.4387 18.7744C41.6273 18.7744 45.8334 22.9806 45.8334 28.1692Z" fill="white"/>
<path id="Ellipse 286 (Stroke)" fill-rule="evenodd" clip-rule="evenodd" d="M36.4387 34.2481C39.796 34.2481 42.5176 31.5265 42.5176 28.1692C42.5176 24.8118 39.796 22.0902 36.4387 22.0902C33.0814 22.0902 30.3597 24.8118 30.3597 28.1692C30.3597 31.5265 33.0814 34.2481 36.4387 34.2481ZM36.4387 37.5639C41.6273 37.5639 45.8334 33.3577 45.8334 28.1692C45.8334 22.9806 41.6273 18.7744 36.4387 18.7744C31.2501 18.7744 27.0439 22.9806 27.0439 28.1692C27.0439 33.3577 31.2501 37.5639 36.4387 37.5639Z" fill="#5E2CA5"/>
</g>
</g>
</svg>